<svg xmlns="http://www.w3.org/2000/svg" xml:space="preserve" style="fill-rule:evenodd;clip-rule:evenodd;stroke-linejoin:round;stroke-miterlimit:2" viewBox="312.5 683.65 1483.61 683.33"><path style="fill:none" d="M0 0h500v500H0z" transform="scale(4.16667)"/><path d="M-123.596 0v-164h71.5c30.099 0 54.5 24.4 54.5 54.5A54.48 54.48 0 0 1 0-93.458C10.117-83.563 16.404-69.769 16.404-54.5c0 30.099-24.401 54.5-54.5 54.5h-85.5Z" style="fill:#ffffff" transform="translate(827.484 1366.98) scale(4.16667)"/><path d="M0 4.556v9.502h6.642c2.585 0 4.225-.072 4.921-.217 1.066-.195 1.934-.668 2.605-1.42.671-.75 1.006-1.756 1.006-3.017 0-1.067-.258-1.971-.776-2.715-.517-.742-1.264-1.285-2.242-1.623-.977-.34-3.098-.51-6.363-.51H0ZM0-9.576v8.218h4.702c2.796 0 4.533-.041 5.212-.121 1.228-.147 2.193-.57 2.897-1.274.703-.703 1.054-1.627 1.054-2.775 0-1.099-.302-1.992-.909-2.678-.605-.688-1.507-1.104-2.702-1.249-.712-.08-2.756-.121-6.133-.121H0Zm-7.176-5.914H7.029c2.813 0 4.909.117 6.291.35 1.381.235 2.618.724 3.708 1.467 1.091.744 2 1.733 2.728 2.97.727 1.236 1.091 2.622 1.091 4.157a8.276 8.276 0 0 1-1.346 4.581c-.897 1.39-2.113 2.433-3.649 3.126 2.166.631 3.831 1.708 4.995 3.225 1.163 1.52 1.745 3.305 1.745 5.357 0 1.616-.376 3.188-1.127 4.715-.752 1.528-1.779 2.748-3.079 3.661-1.301.914-2.905 1.474-4.812 1.685-1.196.129-4.08.209-8.653.242H-7.176V-15.49Z" style="fill:#ffffff;fill-rule:nonzero" transform="translate(984.484 1071.243) scale(4.16667)"/><path d="M0 35.247V0h7.175v29.259h17.842v5.988H0Z" style="fill:#ffffff;fill-rule:nonzero" transform="translate(1125.155 1007.905) scale(4.16667)"/><path d="M0-36.142h7.175v19.246c0 3.054.089 5.035.266 5.939.307 1.455 1.039 2.623 2.195 3.504 1.155.881 2.734 1.32 4.738 1.32 2.037 0 3.571-.416 4.606-1.248 1.035-.832 1.657-1.855 1.867-3.066.21-1.213.315-3.225.315-6.037v-19.658h7.175v18.665c0 4.266-.193 7.28-.582 9.042-.388 1.761-1.103 3.248-2.145 4.46-1.043 1.211-2.436 2.178-4.181 2.897C19.684-.359 17.404 0 14.593 0c-3.394 0-5.968-.393-7.721-1.176-1.754-.783-3.139-1.801-4.157-3.054C1.696-5.482 1.026-6.795.703-8.17.234-10.205 0-13.211 0-17.185v-18.957Z" style="fill:#ffffff;fill-rule:nonzero" transform="translate(1270.976 1157.293) scale(4.16667)"/><path d="M0 35.537V0h26.349v6.011H7.175v7.88h17.841v5.986H7.175v9.672h19.852v5.988H0Z" style="fill:#ffffff;fill-rule:nonzero" transform="translate(1441.043 1006.697) scale(4.16667)"/><path d="m0 12.389 6.981-.68c.42 2.344 1.273 4.065 2.557 5.164 1.285 1.098 3.019 1.649 5.2 1.649 2.311 0 4.052-.49 5.224-1.467 1.172-.978 1.758-2.121 1.758-3.43 0-.841-.247-1.556-.74-2.146-.493-.59-1.354-1.102-2.582-1.539-.84-.291-2.755-.809-5.745-1.551-3.846-.953-6.545-2.125-8.096-3.516C2.375 2.918 1.284.535 1.284-2.277c0-1.811.514-3.504 1.54-5.078 1.026-1.576 2.504-2.776 4.436-3.6 1.93-.824 4.263-1.236 6.993-1.236 4.461 0 7.818.976 10.072 2.934 2.254 1.955 3.438 4.564 3.551 7.828l-7.175.316c-.306-1.826-.966-3.141-1.975-3.939-1.01-.801-2.526-1.202-4.545-1.202-2.085 0-3.717.43-4.897 1.286-.76.55-1.139 1.285-1.139 2.207 0 .839.355 1.558 1.066 2.156.905.76 3.103 1.553 6.594 2.377 3.49.824 6.072 1.676 7.745 2.556 1.672.881 2.981 2.084 3.927 3.612.945 1.527 1.418 3.414 1.418 5.66 0 2.037-.566 3.943-1.698 5.721-1.131 1.779-2.73 3.099-4.799 3.963-2.069.865-4.646 1.296-7.733 1.296-4.492 0-7.942-1.037-10.351-3.113C1.906 19.391.469 16.364 0 12.389" style="fill:#ffffff;fill-rule:nonzero" transform="translate(946.913 1264.56) scale(4.16667)"/><path d="m0 9.404 6.957 2.207c-1.066 3.877-2.841 6.758-5.321 8.641-2.481 1.882-5.628 2.824-9.442 2.824-4.718 0-8.597-1.611-11.635-4.836-3.038-3.225-4.557-7.631-4.557-13.223 0-5.916 1.527-10.508 4.581-13.781 3.055-3.271 7.07-4.908 12.048-4.908 4.347 0 7.878 1.285 10.593 3.853 1.616 1.52 2.828 3.702 3.635 6.545L-.242-1.576C-.663-3.418-1.539-4.873-2.873-5.94c-1.333-1.066-2.953-1.599-4.86-1.599-2.634 0-4.772.945-6.412 2.836-1.64 1.89-2.459 4.953-2.459 9.187 0 4.492.807 7.691 2.423 9.598 1.616 1.908 3.717 2.861 6.303 2.861 1.906 0 3.547-.605 4.92-1.818C-1.584 13.914-.599 12.006 0 9.404" style="fill:#ffffff;fill-rule:nonzero" transform="translate(1207.676 1270.73) scale(4.16667)"/><path d="M0-5.479h5.309c3.442 0 5.59-.146 6.448-.436.855-.291 1.526-.793 2.012-1.503.484-.711.726-1.6.726-2.666 0-1.196-.319-2.163-.957-2.897-.639-.736-1.539-1.201-2.703-1.394-.581-.081-2.327-.122-5.235-.122H0v9.018Zm-7.176 20.508v-35.537H7.927c3.797 0 6.556.32 8.277.957 1.722.638 3.099 1.773 4.134 3.406 1.033 1.633 1.551 3.5 1.551 5.6 0 2.666-.784 4.869-2.352 6.605-1.567 1.738-3.91 2.832-7.029 3.285C14.06.25 15.34 1.244 16.35 2.326c1.009 1.084 2.372 3.006 4.085 5.769l4.338 6.934h-8.581l-5.187-7.733C9.163 4.533 7.902 2.791 7.224 2.072 6.545 1.353 5.825.859 5.066.593c-.759-.267-1.963-.4-3.612-.4H0v14.836h-7.176Z" style="fill:#ffffff;fill-rule:nonzero" transform="translate(1312.793 1301.734) scale(4.16667)"/><path style="fill:#ffffff" d="M348.419 172.555h7.176v35.537h-7.176z" transform="translate(0 497.305) scale(4.16667)"/><path d="M0-23.513v10.084h3.927c2.828 0 4.719-.186 5.673-.557.953-.373 1.7-.955 2.242-1.746.541-.791.811-1.713.811-2.763 0-1.293-.38-2.36-1.139-3.2-.76-.839-1.721-1.365-2.884-1.576-.858-.162-2.578-.242-5.164-.242H0ZM-7.175 6.012v-35.537H4.339c4.363 0 7.207.178 8.533.533 2.036.534 3.74 1.694 5.114 3.479 1.373 1.785 2.061 4.094 2.061 6.92 0 2.182-.397 4.018-1.188 5.504-.792 1.486-1.797 2.654-3.018 3.502-1.22.849-2.46 1.41-3.721 1.685-1.713.34-4.193.508-7.441.508H0V6.012h-7.175Z" style="fill:#ffffff;fill-rule:nonzero" transform="translate(1560.497 1339.305) scale(4.16667)"/><path d="M0 35.537V6.012h-10.545V0h28.24v6.012H7.175v29.525H0Z" style="fill:#ffffff;fill-rule:nonzero" transform="translate(1722.38 1216.284) scale(4.16667)"/></svg>